<svg width="188" height="18" viewBox="0 0 188 18" fill="none" xmlns="http://www.w3.org/2000/svg">
<path d="M12.376 2.288V0.199999H0.52V17H2.92V10.208H11.344V8.144H2.92V2.288H12.376ZM29.6024 17L25.6184 11.36C27.9704 10.52 29.3144 8.648 29.3144 6.056C29.3144 2.408 26.6744 0.199999 22.3064 0.199999H15.7544V17H18.1544V11.888H22.3064C22.6664 11.888 23.0264 11.864 23.3624 11.84L26.9864 17H29.6024ZM22.2344 9.848H18.1544V2.288H22.2344C25.3064 2.288 26.9144 3.656 26.9144 6.056C26.9144 8.456 25.3064 9.848 22.2344 9.848ZM40.7759 17.192C45.8879 17.192 49.6799 13.544 49.6799 8.6C49.6799 3.656 45.8879 0.0079999 40.7759 0.0079999C35.6159 0.0079999 31.8239 3.68 31.8239 8.6C31.8239 13.52 35.6159 17.192 40.7759 17.192ZM40.7759 15.056C37.0079 15.056 34.2239 12.32 34.2239 8.6C34.2239 4.88 37.0079 2.144 40.7759 2.144C44.4959 2.144 47.2799 4.88 47.2799 8.6C47.2799 12.32 44.4959 15.056 40.7759 15.056ZM65.3961 0.199999V12.728L55.3161 0.199999H53.3481V17H55.7481V4.472L65.8281 17H67.7961V0.199999H65.3961ZM76.1607 17H78.5367V2.288H84.2967V0.199999H70.4007V2.288H76.1607V17ZM91.7346 17.12C95.8866 17.12 97.7826 15.056 97.7826 12.68C97.7826 6.584 87.2946 9.56 87.2946 4.52C87.2946 2.672 88.7586 1.16 92.0226 1.16C93.5346 1.16 95.2386 1.616 96.6306 2.576L97.0866 1.592C95.7906 0.655999 93.8706 0.079999 92.0226 0.079999C87.8946 0.079999 86.0706 2.168 86.0706 4.544C86.0706 10.736 96.5586 7.712 96.5586 12.752C96.5586 14.576 95.0706 16.04 91.7106 16.04C89.4546 16.04 87.3186 15.128 86.1666 13.928L85.6146 14.84C86.8386 16.184 89.2386 17.12 91.7346 17.12ZM109.072 17.12C114.064 17.12 117.808 13.496 117.808 8.6C117.808 3.704 114.064 0.079999 109.072 0.079999C104.056 0.079999 100.336 3.728 100.336 8.6C100.336 13.472 104.056 17.12 109.072 17.12ZM109.072 15.992C104.776 15.992 101.56 12.848 101.56 8.6C101.56 4.352 104.776 1.208 109.072 1.208C113.344 1.208 116.56 4.352 116.56 8.6C116.56 12.848 113.344 15.992 109.072 15.992ZM128.629 17.12C132.805 17.12 135.373 14.672 135.373 9.872V0.199999H134.149V9.824C134.149 14.024 132.157 15.992 128.653 15.992C125.149 15.992 123.133 14.024 123.133 9.824V0.199999H121.909V9.872C121.909 14.672 124.453 17.12 128.629 17.12ZM154.14 17L149.94 11.12C152.436 10.376 153.876 8.528 153.876 5.864C153.876 2.312 151.332 0.199999 147.108 0.199999H141.084V17H142.308V11.504H147.108C147.684 11.504 148.212 11.456 148.74 11.384L152.748 17H154.14ZM142.308 10.424V1.304H147.108C150.708 1.304 152.628 2.96 152.628 5.864C152.628 8.744 150.708 10.424 147.108 10.424H142.308ZM165.462 17.12C167.838 17.12 169.974 16.328 171.438 14.768L170.67 13.976C169.23 15.392 167.478 15.992 165.51 15.992C161.214 15.992 157.974 12.824 157.974 8.6C157.974 4.376 161.214 1.208 165.51 1.208C167.478 1.208 169.23 1.784 170.67 3.2L171.438 2.408C169.974 0.847999 167.838 0.079999 165.462 0.079999C160.47 0.079999 156.75 3.704 156.75 8.6C156.75 13.496 160.47 17.12 165.462 17.12ZM176.761 15.896V9.008H185.713V7.928H176.761V1.304H186.769V0.199999H175.537V17H187.129V15.896H176.761Z" fill="#898989"/>
</svg>
