<?xml version="1.0" encoding="UTF-8" standalone="no"?>
<!-- Generator: Adobe Illustrator 19.0.0, SVG Export Plug-In . SVG Version: 6.00 Build 0)  -->

<svg
   xmlns:dc="http://purl.org/dc/elements/1.1/"
   xmlns:cc="http://creativecommons.org/ns#"
   xmlns:rdf="http://www.w3.org/1999/02/22-rdf-syntax-ns#"
   xmlns:svg="http://www.w3.org/2000/svg"
   xmlns="http://www.w3.org/2000/svg"
   xmlns:sodipodi="http://sodipodi.sourceforge.net/DTD/sodipodi-0.dtd"
   xmlns:inkscape="http://www.inkscape.org/namespaces/inkscape"
   version="1.1"
   id="Capa_1"
   x="0px"
   y="0px"
   viewBox="0 0 513.28 513.28"
   style="enable-background:new 0 0 513.28 513.28;"
   xml:space="preserve"
   sodipodi:docname="search.svg"
   inkscape:version="0.92.4 (5da689c313, 2019-01-14)"><metadata
   id="metadata43"><rdf:RDF><cc:Work
       rdf:about=""><dc:format>image/svg+xml</dc:format><dc:type
         rdf:resource="http://purl.org/dc/dcmitype/StillImage" /></cc:Work></rdf:RDF></metadata><defs
   id="defs41" /><sodipodi:namedview
   pagecolor="#ffffff"
   bordercolor="#666666"
   borderopacity="1"
   objecttolerance="10"
   gridtolerance="10"
   guidetolerance="10"
   inkscape:pageopacity="0"
   inkscape:pageshadow="2"
   inkscape:window-width="1920"
   inkscape:window-height="1017"
   id="namedview39"
   showgrid="false"
   inkscape:zoom="0.459788"
   inkscape:cx="256.64001"
   inkscape:cy="256.64001"
   inkscape:window-x="-8"
   inkscape:window-y="-8"
   inkscape:window-maximized="1"
   inkscape:current-layer="g6" />
<g
   id="g6">
	<g
   id="g4"
   transform="matrix(-1.0117627,0,0,1,517.38624,2.1749183)"
   style="stroke:#000000;fill:#707070;fill-opacity:1">
		<path
   d="M 495.04,404.48 410.56,320 c 15.36,-30.72 25.6,-66.56 25.6,-102.4 C 436.16,97.28 338.88,0 218.56,0 98.24,0 0.96,97.28 0.96,217.6 c 0,120.32 97.28,217.6 217.6,217.6 35.84,0 71.68,-10.24 102.4,-25.6 l 84.48,84.48 c 25.6,25.6 64,25.6 89.6,0 23.04,-25.6 23.04,-64 0,-89.6 z M 218.56,384 c -92.16,0 -166.4,-74.24 -166.4,-166.4 0,-92.16 74.24,-166.4 166.4,-166.4 92.16,0 166.4,74.24 166.4,166.4 0,92.16 -74.24,166.4 -166.4,166.4 z"
   id="path2"
   inkscape:connector-curvature="0"
   style="stroke:#000000;fill:#707070;fill-opacity:1" />
	</g>
</g>
<g
   id="g8">
</g>
<g
   id="g10">
</g>
<g
   id="g12">
</g>
<g
   id="g14">
</g>
<g
   id="g16">
</g>
<g
   id="g18">
</g>
<g
   id="g20">
</g>
<g
   id="g22">
</g>
<g
   id="g24">
</g>
<g
   id="g26">
</g>
<g
   id="g28">
</g>
<g
   id="g30">
</g>
<g
   id="g32">
</g>
<g
   id="g34">
</g>
<g
   id="g36">
</g>
</svg>