<svg xmlns="http://www.w3.org/2000/svg" width="39.5" height="24.5" viewBox="0 0 39.5 24.5">
  <g id="Component_1_1" data-name="Component 1 – 1" transform="translate(1)">
    <g id="surface1" transform="translate(14.391 0)">
      <path id="Path_1" data-name="Path 1" d="M16.83,14.241A8.913,8.913,0,0,0,14.636,1.66,9.324,9.324,0,0,0,1.8,3.811,8.912,8.912,0,0,0,4,16.392,9.36,9.36,0,0,0,14,16.8l6.788,6.615a1.954,1.954,0,0,0,2.724.068,1.863,1.863,0,0,0,.07-2.67c-.023-.024-.046-.046-.07-.069Zm-7.519.617A5.881,5.881,0,0,1,3.371,9.04,5.88,5.88,0,0,1,9.306,3.217a5.88,5.88,0,0,1,5.938,5.809,5.881,5.881,0,0,1-5.93,5.831Zm0,0" fill="#707070"/>
    </g>
    <line id="Line_1" data-name="Line 1" y2="24" transform="translate(0 0.5)" fill="none" stroke="#707070" stroke-width="2"/>
  </g>
</svg>
